<?xml version="1.0" encoding="UTF-8"?>
<svg xmlns="http://www.w3.org/2000/svg" xmlns:xlink="http://www.w3.org/1999/xlink" viewBox="0 0 30 30" width="30px" height="30px">
<g id="surface145891033">
<path style=" stroke:none;fill-rule:nonzero;fill:rgb(20%,20%,20%);fill-opacity:1;" d="M 11.976562 7.425781 C 11.546875 7.425781 11.152344 7.523438 10.800781 7.726562 C 9.703125 8.359375 9.285156 9.90625 9.503906 11.828125 C 7.730469 12.597656 6.601562 13.730469 6.601562 15 C 6.601562 16.269531 7.730469 17.402344 9.503906 18.171875 C 9.285156 20.09375 9.703125 21.640625 10.800781 22.273438 C 11.152344 22.476562 11.546875 22.574219 11.976562 22.574219 C 12.886719 22.574219 13.941406 22.113281 15 21.332031 C 16.058594 22.113281 17.113281 22.574219 18.027344 22.574219 C 18.453125 22.574219 18.851562 22.476562 19.203125 22.273438 C 20.300781 21.640625 20.71875 20.09375 20.496094 18.171875 C 22.273438 17.402344 23.398438 16.269531 23.398438 15 C 23.398438 13.730469 22.269531 12.597656 20.496094 11.828125 C 20.714844 9.90625 20.296875 8.359375 19.199219 7.726562 C 18.847656 7.523438 18.453125 7.425781 18.023438 7.425781 C 17.113281 7.425781 16.058594 7.886719 15 8.671875 C 13.941406 7.886719 12.886719 7.425781 11.976562 7.425781 Z M 11.976562 8.652344 C 12.523438 8.652344 13.246094 8.941406 14.03125 9.480469 C 13.570312 9.917969 13.117188 10.414062 12.683594 10.964844 C 11.976562 11.066406 11.3125 11.214844 10.695312 11.398438 C 10.691406 11.355469 10.683594 11.3125 10.679688 11.269531 C 10.605469 10.023438 10.878906 9.09375 11.414062 8.785156 C 11.570312 8.695312 11.753906 8.652344 11.976562 8.652344 Z M 18.023438 8.652344 C 18.246094 8.652344 18.429688 8.695312 18.585938 8.785156 C 19.121094 9.09375 19.394531 10.023438 19.320312 11.269531 C 19.316406 11.3125 19.308594 11.355469 19.304688 11.398438 C 18.6875 11.214844 18.023438 11.066406 17.316406 10.964844 C 16.878906 10.414062 16.429688 9.917969 15.96875 9.480469 C 16.753906 8.941406 17.476562 8.652344 18.023438 8.652344 Z M 15 10.261719 C 15.191406 10.433594 15.378906 10.613281 15.570312 10.816406 C 15.378906 10.808594 15.191406 10.800781 15 10.800781 C 14.808594 10.800781 14.621094 10.808594 14.433594 10.816406 C 14.621094 10.617188 14.808594 10.433594 15 10.261719 Z M 15 12.023438 C 15.582031 12.023438 16.128906 12.058594 16.652344 12.113281 C 16.96875 12.546875 17.285156 13.003906 17.578125 13.511719 C 17.859375 14 18.109375 14.5 18.328125 15 C 18.109375 15.5 17.859375 16 17.578125 16.488281 C 17.285156 16.996094 16.972656 17.449219 16.652344 17.882812 C 16.113281 17.941406 15.558594 17.976562 15 17.976562 C 14.417969 17.976562 13.871094 17.941406 13.347656 17.886719 C 13.03125 17.453125 12.714844 16.996094 12.421875 16.488281 C 12.140625 16 11.890625 15.5 11.671875 15 C 11.890625 14.5 12.140625 14 12.421875 13.511719 C 12.714844 13.003906 13.027344 12.550781 13.34375 12.117188 C 13.886719 12.058594 14.441406 12.023438 15 12.023438 Z M 18.320312 12.402344 C 18.601562 12.472656 18.867188 12.542969 19.117188 12.625 C 19.0625 12.878906 18.992188 13.144531 18.914062 13.40625 C 18.824219 13.238281 18.734375 13.070312 18.636719 12.898438 C 18.539062 12.726562 18.425781 12.570312 18.320312 12.402344 Z M 11.675781 12.40625 C 11.574219 12.570312 11.460938 12.726562 11.363281 12.898438 C 11.265625 13.070312 11.175781 13.238281 11.085938 13.40625 C 11.007812 13.140625 10.9375 12.878906 10.878906 12.621094 C 11.136719 12.542969 11.402344 12.46875 11.675781 12.40625 Z M 9.726562 13.074219 C 9.875 13.695312 10.082031 14.339844 10.34375 15 C 10.082031 15.65625 9.878906 16.300781 9.730469 16.921875 C 8.511719 16.332031 7.824219 15.597656 7.824219 15 C 7.824219 14.382812 8.492188 13.683594 9.609375 13.125 C 9.644531 13.105469 9.6875 13.089844 9.726562 13.070312 Z M 20.269531 13.078125 C 21.488281 13.667969 22.175781 14.402344 22.175781 15 C 22.175781 15.617188 21.507812 16.316406 20.390625 16.875 C 20.355469 16.894531 20.3125 16.910156 20.273438 16.925781 C 20.125 16.304688 19.921875 15.660156 19.65625 15 C 19.921875 14.34375 20.125 13.699219 20.269531 13.078125 Z M 15 13.601562 C 14.226562 13.601562 13.601562 14.226562 13.601562 15 C 13.601562 15.773438 14.226562 16.398438 15 16.398438 C 15.773438 16.398438 16.398438 15.773438 16.398438 15 C 16.398438 14.226562 15.773438 13.601562 15 13.601562 Z M 11.085938 16.59375 C 11.175781 16.761719 11.265625 16.929688 11.363281 17.101562 C 11.464844 17.273438 11.574219 17.429688 11.675781 17.597656 C 11.398438 17.527344 11.132812 17.457031 10.882812 17.375 C 10.9375 17.117188 11.007812 16.859375 11.085938 16.59375 Z M 18.914062 16.59375 C 18.992188 16.859375 19.0625 17.121094 19.121094 17.378906 C 18.863281 17.457031 18.597656 17.53125 18.324219 17.59375 C 18.425781 17.429688 18.539062 17.273438 18.636719 17.101562 C 18.734375 16.933594 18.824219 16.761719 18.914062 16.59375 Z M 10.695312 18.601562 C 11.3125 18.785156 11.976562 18.933594 12.683594 19.035156 C 13.121094 19.585938 13.570312 20.082031 14.03125 20.519531 C 13.246094 21.058594 12.523438 21.347656 11.976562 21.347656 C 11.753906 21.347656 11.570312 21.304688 11.414062 21.214844 C 10.878906 20.90625 10.605469 19.976562 10.679688 18.730469 C 10.683594 18.691406 10.691406 18.644531 10.695312 18.601562 Z M 19.304688 18.601562 C 19.308594 18.644531 19.316406 18.691406 19.320312 18.730469 C 19.394531 19.976562 19.121094 20.90625 18.585938 21.214844 C 18.429688 21.304688 18.246094 21.347656 18.023438 21.347656 C 17.476562 21.347656 16.753906 21.058594 15.96875 20.519531 C 16.429688 20.082031 16.882812 19.585938 17.316406 19.035156 C 18.023438 18.933594 18.6875 18.785156 19.304688 18.601562 Z M 14.429688 19.183594 C 14.621094 19.191406 14.808594 19.199219 15 19.199219 C 15.191406 19.199219 15.378906 19.191406 15.570312 19.183594 C 15.378906 19.386719 15.191406 19.566406 15 19.738281 C 14.808594 19.566406 14.621094 19.386719 14.429688 19.183594 Z M 14.429688 19.183594 "/>
</g>
</svg>
